<svg xmlns="http://www.w3.org/2000/svg" viewBox="0 0 1000 340" width="1000" height="340" role="img" aria-label="AQUEZADA">
<rect width="1000" height="340" rx="14" fill="#191724"/>
<rect x="16" y="16" width="968" height="308" fill="none" stroke="#6e6a86" stroke-width="1.5"/>
<rect x="22" y="22" width="956" height="296" fill="#232136" stroke="#6e6a86" stroke-width="1"/>
<g font-family="ui-monospace,SFMono-Regular,Menlo,Consolas,monospace" font-weight="700" font-size="22" fill="#c4a7e7">
<circle cx="85" cy="61" r="7" fill="#9ccfd8"/>
<text x="103" y="69">SYSTEM ONLINE</text>
<text x="923" y="69" text-anchor="end">BUILD: OK 100%</text>
</g>
<rect x="77" y="96" width="18.5" height="34.5" fill="#ebbcba"/>
<rect x="95" y="96" width="18.5" height="34.5" fill="#ebbcba"/>
<rect x="113" y="96" width="18.5" height="34.5" fill="#ebbcba"/>
<rect x="131" y="96" width="18.5" height="34.5" fill="#ebbcba"/>
<rect x="149" y="96" width="18.5" height="34.5" fill="#ebbcba"/>
<rect x="77" y="130" width="18.5" height="34.5" fill="#c4a7e7"/>
<rect x="149" y="130" width="18.5" height="34.5" fill="#c4a7e7"/>
<rect x="77" y="164" width="18.5" height="34.5" fill="#31748f"/>
<rect x="95" y="164" width="18.5" height="34.5" fill="#31748f"/>
<rect x="113" y="164" width="18.5" height="34.5" fill="#31748f"/>
<rect x="131" y="164" width="18.5" height="34.5" fill="#31748f"/>
<rect x="149" y="164" width="18.5" height="34.5" fill="#31748f"/>
<rect x="77" y="198" width="18.5" height="34.5" fill="#9ccfd8"/>
<rect x="149" y="198" width="18.5" height="34.5" fill="#9ccfd8"/>
<rect x="77" y="232" width="18.5" height="34.5" fill="#9ccfd8"/>
<rect x="149" y="232" width="18.5" height="34.5" fill="#9ccfd8"/>
<rect x="185" y="96" width="18.5" height="34.5" fill="#ebbcba"/>
<rect x="203" y="96" width="18.5" height="34.5" fill="#ebbcba"/>
<rect x="221" y="96" width="18.5" height="34.5" fill="#ebbcba"/>
<rect x="239" y="96" width="18.5" height="34.5" fill="#ebbcba"/>
<rect x="257" y="96" width="18.5" height="34.5" fill="#ebbcba"/>
<rect x="185" y="130" width="18.5" height="34.5" fill="#c4a7e7"/>
<rect x="257" y="130" width="18.5" height="34.5" fill="#c4a7e7"/>
<rect x="185" y="164" width="18.5" height="34.5" fill="#31748f"/>
<rect x="257" y="164" width="18.5" height="34.5" fill="#31748f"/>
<rect x="185" y="198" width="18.5" height="34.5" fill="#9ccfd8"/>
<rect x="239" y="198" width="18.5" height="34.5" fill="#9ccfd8"/>
<rect x="257" y="198" width="18.5" height="34.5" fill="#9ccfd8"/>
<rect x="185" y="232" width="18.5" height="34.5" fill="#9ccfd8"/>
<rect x="203" y="232" width="18.5" height="34.5" fill="#9ccfd8"/>
<rect x="221" y="232" width="18.5" height="34.5" fill="#9ccfd8"/>
<rect x="239" y="232" width="18.5" height="34.5" fill="#9ccfd8"/>
<rect x="257" y="232" width="18.5" height="34.5" fill="#9ccfd8"/>
<rect x="293" y="96" width="18.5" height="34.5" fill="#ebbcba"/>
<rect x="365" y="96" width="18.5" height="34.5" fill="#ebbcba"/>
<rect x="293" y="130" width="18.5" height="34.5" fill="#c4a7e7"/>
<rect x="365" y="130" width="18.5" height="34.5" fill="#c4a7e7"/>
<rect x="293" y="164" width="18.5" height="34.5" fill="#31748f"/>
<rect x="365" y="164" width="18.5" height="34.5" fill="#31748f"/>
<rect x="293" y="198" width="18.5" height="34.5" fill="#9ccfd8"/>
<rect x="365" y="198" width="18.5" height="34.5" fill="#9ccfd8"/>
<rect x="293" y="232" width="18.5" height="34.5" fill="#9ccfd8"/>
<rect x="311" y="232" width="18.5" height="34.5" fill="#9ccfd8"/>
<rect x="329" y="232" width="18.5" height="34.5" fill="#9ccfd8"/>
<rect x="347" y="232" width="18.5" height="34.5" fill="#9ccfd8"/>
<rect x="365" y="232" width="18.5" height="34.5" fill="#9ccfd8"/>
<rect x="401" y="96" width="18.5" height="34.5" fill="#ebbcba"/>
<rect x="419" y="96" width="18.5" height="34.5" fill="#ebbcba"/>
<rect x="437" y="96" width="18.5" height="34.5" fill="#ebbcba"/>
<rect x="455" y="96" width="18.5" height="34.5" fill="#ebbcba"/>
<rect x="473" y="96" width="18.5" height="34.5" fill="#ebbcba"/>
<rect x="401" y="130" width="18.5" height="34.5" fill="#c4a7e7"/>
<rect x="401" y="164" width="18.5" height="34.5" fill="#31748f"/>
<rect x="419" y="164" width="18.5" height="34.5" fill="#31748f"/>
<rect x="437" y="164" width="18.5" height="34.5" fill="#31748f"/>
<rect x="455" y="164" width="18.5" height="34.5" fill="#31748f"/>
<rect x="401" y="198" width="18.5" height="34.5" fill="#9ccfd8"/>
<rect x="401" y="232" width="18.5" height="34.5" fill="#9ccfd8"/>
<rect x="419" y="232" width="18.5" height="34.5" fill="#9ccfd8"/>
<rect x="437" y="232" width="18.5" height="34.5" fill="#9ccfd8"/>
<rect x="455" y="232" width="18.5" height="34.5" fill="#9ccfd8"/>
<rect x="473" y="232" width="18.5" height="34.5" fill="#9ccfd8"/>
<rect x="509" y="96" width="18.5" height="34.5" fill="#ebbcba"/>
<rect x="527" y="96" width="18.5" height="34.5" fill="#ebbcba"/>
<rect x="545" y="96" width="18.5" height="34.5" fill="#ebbcba"/>
<rect x="563" y="96" width="18.5" height="34.5" fill="#ebbcba"/>
<rect x="581" y="96" width="18.5" height="34.5" fill="#ebbcba"/>
<rect x="563" y="130" width="18.5" height="34.5" fill="#c4a7e7"/>
<rect x="545" y="164" width="18.5" height="34.5" fill="#31748f"/>
<rect x="527" y="198" width="18.5" height="34.5" fill="#9ccfd8"/>
<rect x="509" y="232" width="18.5" height="34.5" fill="#9ccfd8"/>
<rect x="527" y="232" width="18.5" height="34.5" fill="#9ccfd8"/>
<rect x="545" y="232" width="18.5" height="34.5" fill="#9ccfd8"/>
<rect x="563" y="232" width="18.5" height="34.5" fill="#9ccfd8"/>
<rect x="581" y="232" width="18.5" height="34.5" fill="#9ccfd8"/>
<rect x="617" y="96" width="18.5" height="34.5" fill="#ebbcba"/>
<rect x="635" y="96" width="18.5" height="34.5" fill="#ebbcba"/>
<rect x="653" y="96" width="18.5" height="34.5" fill="#ebbcba"/>
<rect x="671" y="96" width="18.5" height="34.5" fill="#ebbcba"/>
<rect x="689" y="96" width="18.5" height="34.5" fill="#ebbcba"/>
<rect x="617" y="130" width="18.5" height="34.5" fill="#c4a7e7"/>
<rect x="689" y="130" width="18.5" height="34.5" fill="#c4a7e7"/>
<rect x="617" y="164" width="18.5" height="34.5" fill="#31748f"/>
<rect x="635" y="164" width="18.5" height="34.5" fill="#31748f"/>
<rect x="653" y="164" width="18.5" height="34.5" fill="#31748f"/>
<rect x="671" y="164" width="18.5" height="34.5" fill="#31748f"/>
<rect x="689" y="164" width="18.5" height="34.5" fill="#31748f"/>
<rect x="617" y="198" width="18.5" height="34.5" fill="#9ccfd8"/>
<rect x="689" y="198" width="18.5" height="34.5" fill="#9ccfd8"/>
<rect x="617" y="232" width="18.5" height="34.5" fill="#9ccfd8"/>
<rect x="689" y="232" width="18.5" height="34.5" fill="#9ccfd8"/>
<rect x="725" y="96" width="18.5" height="34.5" fill="#ebbcba"/>
<rect x="743" y="96" width="18.5" height="34.5" fill="#ebbcba"/>
<rect x="761" y="96" width="18.5" height="34.5" fill="#ebbcba"/>
<rect x="779" y="96" width="18.5" height="34.5" fill="#ebbcba"/>
<rect x="725" y="130" width="18.5" height="34.5" fill="#c4a7e7"/>
<rect x="797" y="130" width="18.5" height="34.5" fill="#c4a7e7"/>
<rect x="725" y="164" width="18.5" height="34.5" fill="#31748f"/>
<rect x="797" y="164" width="18.5" height="34.5" fill="#31748f"/>
<rect x="725" y="198" width="18.5" height="34.5" fill="#9ccfd8"/>
<rect x="797" y="198" width="18.5" height="34.5" fill="#9ccfd8"/>
<rect x="725" y="232" width="18.5" height="34.5" fill="#9ccfd8"/>
<rect x="743" y="232" width="18.5" height="34.5" fill="#9ccfd8"/>
<rect x="761" y="232" width="18.5" height="34.5" fill="#9ccfd8"/>
<rect x="779" y="232" width="18.5" height="34.5" fill="#9ccfd8"/>
<rect x="833" y="96" width="18.5" height="34.5" fill="#ebbcba"/>
<rect x="851" y="96" width="18.5" height="34.5" fill="#ebbcba"/>
<rect x="869" y="96" width="18.5" height="34.5" fill="#ebbcba"/>
<rect x="887" y="96" width="18.5" height="34.5" fill="#ebbcba"/>
<rect x="905" y="96" width="18.5" height="34.5" fill="#ebbcba"/>
<rect x="833" y="130" width="18.5" height="34.5" fill="#c4a7e7"/>
<rect x="905" y="130" width="18.5" height="34.5" fill="#c4a7e7"/>
<rect x="833" y="164" width="18.5" height="34.5" fill="#31748f"/>
<rect x="851" y="164" width="18.5" height="34.5" fill="#31748f"/>
<rect x="869" y="164" width="18.5" height="34.5" fill="#31748f"/>
<rect x="887" y="164" width="18.5" height="34.5" fill="#31748f"/>
<rect x="905" y="164" width="18.5" height="34.5" fill="#31748f"/>
<rect x="833" y="198" width="18.5" height="34.5" fill="#9ccfd8"/>
<rect x="905" y="198" width="18.5" height="34.5" fill="#9ccfd8"/>
<rect x="833" y="232" width="18.5" height="34.5" fill="#9ccfd8"/>
<rect x="905" y="232" width="18.5" height="34.5" fill="#9ccfd8"/>
<text x="77" y="302" font-family="ui-monospace,SFMono-Regular,Menlo,Consolas,monospace" font-style="italic" font-size="22" fill="#6e6a86">&gt; aquezada — software engineer · Santiago, Chile</text>
</svg>